<?xml version="1.0" encoding="utf-8"?>
<!-- Generator: Adobe Illustrator 16.0.0, SVG Export Plug-In . SVG Version: 6.00 Build 0)  -->
<!DOCTYPE svg PUBLIC "-//W3C//DTD SVG 1.1//EN" "http://www.w3.org/Graphics/SVG/1.1/DTD/svg11.dtd">
<svg version="1.1" id="Layer_1" xmlns="http://www.w3.org/2000/svg" xmlns:xlink="http://www.w3.org/1999/xlink" x="0px" y="0px"
	 width="954px" height="228px" viewBox="-335.452 -20.969 954 228" enable-background="new -335.452 -20.969 954 228"
	 xml:space="preserve">
<g>
	<g>
		<circle fill="#F8F4EF" cx="-264.978" cy="51.526" r="18.333"/>
		<path fill="#F8F4EF" d="M-267.311,202.69h11l-3.333-11.332l-7.667,2.332l8.667-54.666c0,0,5.333-12.999,16-10.334
			c13.814,3.455,36,8.852,36,8.852l-68.834-66.517l-1.5,125l8.333-0.666L-267.311,202.69z"/>
		<path fill="#F8F4EF" d="M-224.811,70.383l25.667-0.496c0,0,24.333-1.17,36,11.83c11.666,13,36.666,37,36.666,37l-12,11.335l12,64
			l9.625-3.236v11.902l-9.791-0.027l0.166-6.973l-8,1l-15-54.277l-2.166-7.084c0,0-6.082,1.498-10.074-1.234
			C-169.103,129.065-224.811,70.383-224.811,70.383z"/>
	</g>
	<path fill="#ADA08B" d="M-251.762,130.334l20.343,54.881h18.333l-2.333-9l-8.167,2.332l-2.06-45.564l-18.42-4.703
		C-244.064,128.278-247.002,126.951-251.762,130.334z"/>
	<path fill="#231F20" d="M-37.083,129.215"/>
	<g>
		<path fill="#E5D5BD" d="M-283.186,60.257l-0.125,142.46h16.333l-1.542-9.176l-8,2l1.482-123.497l68.518,65.497l50.667,13.334
			l12.792,51.842h16.667l0.041-8.666l-8.166,2.158l-17-61.334c0,0-6,3.381-13.667-3.643c-7.667-7.024-59.5-60.851-59.5-60.851
			l-38.833-0.508c0,0-6.333-0.291-9.083-1.541s-11.957-10.207-5.375-8.078c3.333,1.078,5.75,0.703,5.75,0.703
			s5.594,0.371,4.754-9.465c-0.708-8.291-10.582-6.355-12.379-5.535c-2.021,0.922-2.962,2.139-3.424,4.455
			C-283.773,52.903-283.186,60.257-283.186,60.257z"/>
		<path fill="#E5D5BD" d="M-197.895,67.085c15.5-4.5,22.522-24.93,23.25-23c2,5.31,31.647,34.58,48.813,24.58l-0.812,50.198
			l-35.626-35.851c0,0-12.906-11.746-22.896-11.846c-14.542-0.143-22.714-1.328-25.202-1.062
			C-212.854,70.37-197.895,67.085-197.895,67.085z"/>
	</g>
	<line fill="none" x1="-139.458" y1="45.774" x2="-151.333" y2="45.774"/>
	<g>
		<polygon fill="#F8F4EF" points="-172.577,18.091 -153.103,-3.284 -120.76,-3.284 -102.21,18.091 		"/>
		<polygon fill="#ABA197" points="-147.727,12.274 -137.977,-3.31 -126.977,12.274 -126.977,26.94 -147.813,26.94 		"/>
		<path fill="#F8F4EF" d="M-174.333,24.799l-0.334,19.779c0,0,1.924,4.205,5.834,9.387c3.713,4.916,11.105,11.685,21.937,14.017
			c19.065,4.106,19.38-1.158,20.085,0.104c1.48,2.646,0.168,49.118,0.168,49.118l25.312-26.237v-66.75c0,0,0-10.672-10.383-10.668
			c-8.246,0.004-19.08,0-19.08,0s-5.312,0.931-5.334,7.345c-0.017,5.073-0.017,6.198-0.017,6.198h-3.524v-9.209
			c0,0,0.041-4.5-4.125-4.334c-2.27,0.092-2.244,0.246-22.037-0.582C-175.62,13.802-174.279,24.286-174.333,24.799z"/>
	</g>
	<g>
		<path fill="#657780" d="M-162.624,60.913c0.25-0.375,16.125-20.375,16.125-20.375s1.36-9.875,9.931-10
			c8.569-0.125,9.175,7.154,9.925,10.154s15.645,18.221,15.645,18.221s-10.5,11.125-24.625,11.125S-162.624,60.913-162.624,60.913z"
			/>
		<path fill="#231F20" d="M-149.975,44.917h11.229V34.608l-2.75,0.75c-1,2.125-0.625,5.625-0.625,5.625l-5-0.375L-149.975,44.917z"
			/>
		<path fill="#231F20" d="M-123.792,44.917h-11.203V34.608l2.75,0.75c1,2.125,0.625,5.625,0.625,5.625l5-0.375L-123.792,44.917z"/>
		<path fill="#231F20" d="M-140.524,52.313c0.25-0.375,5.625-1.019,8.75,1.356c4.869,3.701,9.326,13.244,9.326,13.244
			c-4.125,2.42-6.562,3.607-12.024,3.801c-4.542,0.16-17.433-3.155-16.927-4.17C-144.774,53.296-140.524,52.313-140.524,52.313z"/>
	</g>
	<g>
		<path fill="#657780" d="M-168.583,31.278c0-0.117,0.002-0.234,0.006-0.353"/>
	</g>
	<g>
		<path fill="#657780" d="M-147.397,30.186v10.407h-10.635h-0.066c-5.576-0.17-10.043-4.606-10.043-10.057
			c0-5.559,4.646-10.062,10.375-10.062C-152.159,20.474-147.589,24.792-147.397,30.186z"/>
		<circle fill="#040303" cx="-157.77" cy="31.102" r="4.344"/>
		<ellipse fill="#C8C7C8" cx="-157.77" cy="29.341" rx="2.281" ry="2.25"/>
	</g>
	<g>
		<path fill="#657780" d="M-126.645,30.186v10.407h10.635h0.066c5.575-0.17,10.043-4.606,10.043-10.057
			c0-5.559-4.646-10.062-10.375-10.062C-121.885,20.474-126.454,24.792-126.645,30.186z"/>
		<circle fill="#040303" cx="-117.96" cy="30.952" r="4.344"/>
		<ellipse fill="#C8C7C8" cx="-117.96" cy="29.19" rx="2.28" ry="2.25"/>
	</g>
	<g>
		<polygon fill="#010101" points="-181.415,29.536 -152.103,-3.31 -175.415,-3.31 		"/>
		<path fill="#657680" d="M-175.415-3.31l-16.167,10.025c0,0-2.5,3,0,7.334s9.917,15.486,9.917,15.486L-175.415-3.31z"/>
	</g>
	<g>
		<path fill="#010101" d="M-122.76-3.446c1.261,0,21.345,0,21.345,0l6.666,32.82L-122.76-3.446z"/>
		<path fill="#657680" d="M-101.415-3.446l16,10.5c0,0,1.334,2.334,0,6.834s-9.334,15.486-9.334,15.486L-101.415-3.446z"/>
	</g>
	<path fill="#E5D5BD" d="M-101.333,89.716v32.5c0,0-1.582,11.333-6.082,16.167c-4.5,4.832,5.332,37.666,5.332,37.666l8.5,3.334v6.5
		h-20.166l-9.5-33.334c0,0-8.896,2.939-10.539,2.508c-1.644-0.43-4.689-25.006-4.689-25.006L-101.333,89.716z"/>
</g>
<g>
	<path fill="#4F6F3F" d="M-335.452,178.266l6.089,9.078l6.597-42.558l4.297,32.344l4.33,10.214l4.06-14.187l14.715,11.35
		l8.12-29.507v32.344l6.596-5.675l4.568,10.781l-3.045-38.019l13.701,32.911l3.552-29.507l8.626,31.21l6.089-15.891l3.044,9.647
		l10.658-41.421l-2.537,43.691l10.656-23.265l10.149,26.669l6.09-30.642l9.642,28.372l8.626-34.046v34.046l6.089-17.592
		l7.104,18.727l6.596-18.727l8.12,20.996l-2.537-26.103l9.641,22.697l6.598-32.345l3.044,35.748l9.642-10.213l2.03,13.051
		l7.611-30.074l7.612,32.91l8.12-21.562l9.133,10.781l7.104-11.916l3.552,15.888l8.626-16.455l4.06,16.455v-20.141l8.119,24.115
		l3.045-24.115l4.059,30.357l5.582-40.289l5.074,36.884l6.597-21.562v21.562l8.12-35.181l6.596,32.344l11.671-23.832v23.832
		l11.672-36.315c0,0,0.507,36.315,0,36.315c-0.507,0,7.611-27.236,7.611-27.236l10.657,12.482l12.687,14.754l2.537-44.827
		l4.059,38.586l5.583-10.781l12.686,10.781l11.671-26.67v28.372l5.582-1.702l3.552,6.241v-33.478l7.612,28.371l5.582-25.534
		l6.089,30.641l9.133-18.725l4.567,14.187l9.134-41.423c0,0-4.059,34.047-4.566,35.748c-0.507,1.701,9.135-17.592,9.135-17.592
		l7.61,23.834l8.627-27.806l10.15,27.237l6.09-31.209v31.775c0,0,10.148-22.13,10.148-18.441s5.582,19.011,5.582,19.011
		l4.061-16.456l6.088,16.456v-20.429l10.15,23.832l4.057-36.315l7.105,36.315l6.09-13.051v13.051l7.611-27.805l10.654,27.805
		l5.076-19.859l12.688,10.781l5.58-13.336v12.199l7.611-7.375l4.568,12.482l6.596-17.309l2.537,17.309l4.566-32.344l7.611,25.535
		l3.555,2.27c0,0,0-19.859,0-18.158c0,1.702,3.527,19.293,3.527,19.293l12.201-11.349l-3.045,14.187l18.268-25.535l10.658,27.806
		l3.045-11.351c0,0,6.088,10.215,6.088,11.916c0,1.703,4.566-36.314,4.566-36.314l5.584,35.749l9.133-25.535v23.832l8.119-17.308
		l4.061,18.441v-35.18l10.146,30.641l6.092-28.938l6.088,31.775l11.674-27.236c0,0,5.58,25.535,5.58,27.236
		c0,1.703,11.672-25.533,11.164-23.832s5.074,23.266,5.074,23.266v-41.991l11.672,40.854l4.564-15.037l5.584,18.441l7.611-29.506
		l3.045,26.669l15.223-34.047l-7.104,40.854l7.104-11.914l4.061,11.914l2.773-35.181l9.912,27.806l13.193-15.039l3.047,22.414
		c0,0,11.162-48.799,11.162-47.098c0,1.703,4.061,39.723,4.061,39.723l7.611-4.539l8.863-17.023l10.418,30.074v-43.692
		l11.998,39.222l1.195,3.903v-27.237l10.148,24.399c0,0,10.656-36.315,10.656-34.046s5.074,42.559,5.074,42.559
		s1.523-31.776,2.031-28.656c0.506,3.121,5.58,22.414,5.58,22.414l6.598-27.805l4.059,27.805l7.613-29.506v27.235l13.197-21.562
		v38.586h-954V178.266z"/>
	<path fill="#7EB066" d="M618.549,181.502l-6.09,8.119l-6.598-38.06l-4.297,28.926l-4.328,9.134l-4.061-12.688l-14.717,10.149
		l-8.119-26.389v28.926l-6.598-5.074l-4.566,9.643l3.045-34l-13.701,29.433l-3.553-26.388l-8.625,27.909l-6.09-14.209l-3.045,8.628
		l-10.656-37.044l2.537,39.074l-10.656-20.806l-10.146,23.85l-6.09-27.4l-9.643,25.371l-8.627-30.447v30.447l-6.09-15.73
		l-7.104,16.746l-6.598-16.746l-8.119,18.775l2.539-23.343l-9.643,20.298l-6.598-28.925l-3.043,31.97l-9.643-9.135l-2.029,11.672
		l-7.611-26.895l-7.611,29.432l-8.119-19.283l-9.135,9.643l-7.104-10.656l-3.553,14.208l-8.627-14.716l-4.061,14.716v-18.015
		l-8.117,21.566l-3.045-21.566l-4.061,27.148l-5.582-36.029l-5.074,32.983l-6.598-19.282v19.282l-8.119-31.462l-6.598,28.926
		l-11.67-21.313v21.313l-11.67-32.477c0,0-0.508,32.477,0,32.477c0.506,0-7.613-24.356-7.613-24.356l-10.656,11.163l-12.686,13.193
		l-2.537-40.089l-4.061,34.507l-5.582-9.642l-12.686,9.642l-11.672-23.851v25.373l-5.582-1.522l-3.553,5.582v-29.939l-7.611,25.372
		l-5.582-22.835l-6.09,27.402l-9.133-16.746l-4.568,12.687l-9.133-37.044c0,0,4.059,30.447,4.566,31.969s-9.135-15.73-9.135-15.73
		l-7.611,21.312l-8.625-24.863l-10.148,24.356l-6.09-27.91v28.417c0,0-10.148-19.79-10.148-16.49c0,3.297-5.582,16.998-5.582,16.998
		l-4.06-14.716l-6.089,14.716v-18.269L99.43,194.189l-4.06-32.478l-7.104,32.478l-6.089-11.673v11.673l-7.612-24.865L63.91,194.189
		l-5.075-17.762l-12.686,9.643l-5.582-11.924v10.908l-7.612-6.597l-4.567,11.164l-6.597-15.478l-2.538,15.478l-4.567-28.925
		l-7.612,22.836l-3.552,2.029c0,0,0-17.762,0-16.238c0,1.522-3.53,17.252-3.53,17.252l-12.201-10.147l3.044,12.687l-18.266-22.836
		l-10.656,24.864l-3.044-10.149c0,0-6.089,9.136-6.089,10.658c0,1.521-4.567-32.478-4.567-32.478l-5.582,31.969l-9.134-22.835
		v21.312l-8.119-15.478l-4.06,16.491v-31.459l-10.149,27.4l-6.089-25.879l-6.089,28.416l-11.671-24.356
		c0,0-5.582,22.836-5.582,24.356c0,1.522-11.671-22.834-11.164-21.312c0.507,1.522-5.075,20.806-5.075,20.806v-37.551
		l-11.672,36.536l-4.567-13.446l-5.582,16.49l-7.612-26.387l-3.045,23.85l-15.223-30.445l7.104,36.535l-7.104-10.656l-4.06,10.656
		l-2.775-31.462l-9.911,24.865l-13.193-13.446l-3.045,20.043c0,0-11.164-43.641-11.164-42.117c0,1.522-4.06,35.521-4.06,35.521
		l-7.612-4.06l-8.864-15.225l-10.418,26.895V156.13l-11.999,35.075l-1.195,3.489v-24.356l-10.149,21.819
		c0,0-10.656-32.477-10.656-30.445c0,2.029-5.075,38.059-5.075,38.059s-1.522-28.416-2.03-25.625
		c-0.507,2.789-5.582,20.043-5.582,20.043l-6.597-24.865l-4.06,24.865l-7.611-26.388v24.356l-13.193-19.282v34.507h954V181.502z"/>
</g>
</svg>
