<?xml version="1.0" encoding="utf-8"?>
<!-- Generator: Adobe Illustrator 16.0.0, SVG Export Plug-In . SVG Version: 6.00 Build 0)  -->
<!DOCTYPE svg PUBLIC "-//W3C//DTD SVG 1.1//EN" "http://www.w3.org/Graphics/SVG/1.1/DTD/svg11.dtd">
<svg version="1.1" id="Layer_1" xmlns="http://www.w3.org/2000/svg" xmlns:xlink="http://www.w3.org/1999/xlink" x="0px" y="0px"
	 width="954px" height="68px" viewBox="0 0 954 68" enable-background="new 0 0 954 68" xml:space="preserve">
<g>
	<path fill="#4F6F3F" d="M0,38.884l6.089,9.078l6.597-42.558l4.297,32.344l4.33,10.214l4.06-14.187l14.715,11.35l8.12-29.507v32.344
		l6.596-5.675l4.568,10.781l-3.045-38.018l13.701,32.911l3.552-29.507l8.626,31.21l6.089-15.89l3.044,9.647L101.997,2L99.46,45.692
		l10.656-23.265l10.149,26.669l6.09-30.642l9.642,28.372l8.626-34.046v34.046l6.089-17.591l7.104,18.726l6.596-18.726l8.12,20.995
		l-2.537-26.102l9.641,22.697l6.598-32.345l3.044,35.749l9.642-10.214l2.03,13.051l7.611-30.074l7.612,32.911l8.12-21.562
		l9.133,10.781l7.104-11.916l3.552,15.888l8.626-16.455l4.06,16.455V28.953l8.119,24.115l3.045-24.115l4.059,30.357l5.582-40.288
		l5.074,36.883l6.597-21.562v21.562l8.12-35.181l6.596,32.344l11.671-23.832v23.832l11.672-36.315c0,0,0.507,36.315,0,36.315
		c-0.507,0,7.611-27.236,7.611-27.236l10.657,12.483l12.687,14.753l2.537-44.827l4.059,38.586l5.583-10.781l12.686,10.781
		l11.671-26.67v28.372l5.582-1.702l3.552,6.241V19.591l7.612,28.371l5.582-25.534l6.089,30.641l9.133-18.725l4.567,14.186
		l9.134-41.423c0,0-4.059,34.047-4.566,35.748c-0.507,1.702,9.134-17.591,9.134-17.591l7.611,23.833l8.627-27.805L477,48.529
		l6.091-31.209v31.776c0,0,10.147-22.13,10.147-18.442c0,3.689,5.582,19.011,5.582,19.011l4.061-16.456l6.088,16.456V29.236
		l10.15,23.832l4.058-36.315l7.104,36.315l6.09-13.051v13.051l7.612-27.805l10.655,27.805l5.075-19.859L572.4,43.99l5.581-13.336
		v12.2l7.611-7.376l4.568,12.483l6.597-17.308l2.537,17.308l4.566-32.344l7.612,25.535l3.553,2.27c0,0,0-19.86,0-18.159
		c0,1.703,3.529,19.293,3.529,19.293l12.201-11.348l-3.045,14.186l18.268-25.534l10.657,27.805l3.045-11.35
		c0,0,6.088,10.214,6.088,11.916c0,1.703,4.567-36.315,4.567-36.315l5.583,35.749l9.133-25.535v23.832l8.119-17.308l4.06,18.442
		V13.916l10.148,30.641l6.091-28.938l6.088,31.776l11.673-27.237c0,0,5.581,25.535,5.581,27.237s11.672-25.534,11.164-23.832
		c-0.508,1.701,5.075,23.265,5.075,23.265V4.837l11.671,40.855l4.565-15.038l5.584,18.442l7.611-29.506l3.044,26.669l15.224-34.047
		l-7.104,40.855l7.104-11.915l4.061,11.915l2.773-35.181l9.911,27.805l13.194-15.038l3.046,22.414c0,0,11.162-48.799,11.162-47.098
		c0,1.703,4.061,39.722,4.061,39.722l7.612-4.539l8.863-17.023l10.419,30.074V10.511l11.998,39.222l1.195,3.903V26.399
		l10.148,24.399c0,0,10.657-36.316,10.657-34.046c0,2.27,5.074,42.558,5.074,42.558s1.522-31.776,2.03-28.656
		c0.507,3.121,5.581,22.414,5.581,22.414l6.597-27.805l4.059,27.805l7.613-29.506v27.236L954,29.236v38.586H0V38.884z"/>
	<path fill="#7EB066" d="M954,42.12l-6.09,8.119l-6.597-38.059l-4.297,28.925l-4.329,9.134l-4.06-12.687l-14.716,10.149
		l-8.119-26.388v28.925l-6.598-5.074l-4.566,9.642l3.045-33.999l-13.701,29.432l-3.553-26.387l-8.626,27.909l-6.09-14.209
		l-3.045,8.627L852.003,9.136l2.537,39.074l-10.656-20.806l-10.148,23.85l-6.09-27.401l-9.642,25.372l-8.626-30.447v30.447
		l-6.09-15.731l-7.104,16.746l-6.597-16.746l-8.119,18.776l2.538-23.343l-9.642,20.298L767.767,20.3l-3.044,31.97l-9.642-9.135
		l-2.03,11.672l-7.611-26.895l-7.611,29.432l-8.119-19.283l-9.135,9.642l-7.104-10.656l-3.553,14.208l-8.627-14.716l-4.059,14.716
		V33.24l-8.119,21.566l-3.045-21.566l-4.06,27.148l-5.582-36.029l-5.074,32.984l-6.598-19.283v19.283l-8.119-31.462l-6.597,28.925
		l-11.671-21.313v21.313L626.697,22.33c0,0-0.508,32.477,0,32.477c0.507,0-7.612-24.357-7.612-24.357l-10.656,11.163l-12.687,13.194
		l-2.537-40.089l-4.06,34.507l-5.582-9.642l-12.686,9.642l-11.672-23.851v25.373l-5.582-1.522l-3.552,5.582V24.867l-7.611,25.372
		l-5.582-22.835l-6.09,27.402l-9.134-16.746l-4.567,12.687l-9.134-37.044c0,0,4.06,30.447,4.567,31.969
		c0.507,1.522-9.134-15.73-9.134-15.73l-7.612,21.312l-8.626-24.864L477,50.747l-6.09-27.91v28.417c0,0-10.148-19.79-10.148-16.491
		c0,3.298-5.582,16.999-5.582,16.999l-4.06-14.716l-6.089,14.716V33.493l-10.149,21.313l-4.06-32.477l-7.104,32.477l-6.089-11.672
		v11.672l-7.612-24.865l-10.656,24.865l-5.075-17.761L381.6,46.688l-5.582-11.925v10.909l-7.612-6.597l-4.567,11.164l-6.597-15.477
		l-2.538,15.477l-4.567-28.925l-7.612,22.836l-3.552,2.029c0,0,0-17.761,0-16.238s-3.53,17.253-3.53,17.253l-12.201-10.148
		l3.044,12.686L308.02,26.896l-10.656,24.865l-3.044-10.149c0,0-6.089,9.135-6.089,10.657c0,1.521-4.567-32.477-4.567-32.477
		l-5.582,31.969l-9.134-22.835v21.312l-8.119-15.477l-4.06,16.491V19.793l-10.149,27.401l-6.089-25.88l-6.089,28.417l-11.671-24.357
		c0,0-5.582,22.836-5.582,24.357c0,1.522-11.671-22.835-11.164-21.312s-5.075,20.806-5.075,20.806V11.674L189.278,48.21
		l-4.567-13.447l-5.582,16.491l-7.612-26.387l-3.045,23.85l-15.223-30.446l7.104,36.536l-7.104-10.656l-4.06,10.656l-2.775-31.462
		l-9.911,24.865L123.31,34.763l-3.045,20.044c0,0-11.164-43.641-11.164-42.118s-4.06,35.521-4.06,35.521l-7.612-4.06l-8.864-15.224
		L78.147,55.821V16.748L66.148,51.823l-1.195,3.49V30.956l-10.149,21.82c0,0-10.656-32.477-10.656-30.446
		c0,2.029-5.075,38.059-5.075,38.059s-1.522-28.417-2.03-25.626c-0.507,2.79-5.582,20.044-5.582,20.044l-6.597-24.865l-4.06,24.865
		l-7.611-26.388v24.357L0,33.493V68h954V42.12z"/>
</g>
</svg>
