<?xml version="1.0" encoding="utf-8"?>
<!-- Generator: Adobe Illustrator 16.0.0, SVG Export Plug-In . SVG Version: 6.00 Build 0)  -->
<!DOCTYPE svg PUBLIC "-//W3C//DTD SVG 1.1//EN" "http://www.w3.org/Graphics/SVG/1.1/DTD/svg11.dtd">
<svg version="1.1" id="Layer_1" xmlns="http://www.w3.org/2000/svg" xmlns:xlink="http://www.w3.org/1999/xlink" x="0px" y="0px"
	 width="273px" height="231.061px" viewBox="0 0 273 231.061" enable-background="new 0 0 273 231.061" xml:space="preserve">
<g>
	<g>
		<circle fill="#F8F4EF" cx="60.625" cy="69.289" r="18.333"/>
		<path fill="#F8F4EF" d="M58.292,220.453h11l-3.333-11.332l-7.667,2.332l8.667-54.666c0,0,5.333-13,16-10.334
			c13.814,3.455,36,8.852,36,8.852L50.125,88.787l-1.5,125l8.333-0.666L58.292,220.453z"/>
		<path fill="#F8F4EF" d="M100.792,88.146l25.667-0.496c0,0,24.333-1.17,36,11.83c11.666,13,36.666,37,36.666,37l-12,11.334l12,64
			l9.625-3.236v11.902l-9.791-0.027l0.166-6.973l-8,1l-15-54.277l-2.166-7.084c0,0-6.082,1.498-10.074-1.234
			C156.5,146.828,100.792,88.146,100.792,88.146z"/>
	</g>
	<path fill="#ADA08B" d="M73.841,148.098l20.343,54.881h18.333l-2.333-9l-8.167,2.332l-2.06-45.566l-18.42-4.703
		C81.538,146.041,78.6,144.715,73.841,148.098z"/>
	<path fill="#231F20" d="M288.52,146.979"/>
	<g>
		<path fill="#E5D5BD" d="M42.417,78.02L42.292,220.48h16.333l-1.542-9.176l-8,2l1.482-123.496l68.518,65.496l50.667,13.334
			l12.792,51.842h16.667l0.041-8.666l-8.166,2.158l-17-61.334c0,0-6,3.381-13.667-3.643s-59.5-60.85-59.5-60.85l-38.833-0.508
			c0,0-6.333-0.291-9.083-1.541s-11.957-10.207-5.375-8.078c3.333,1.078,5.75,0.703,5.75,0.703s5.594,0.371,4.754-9.465
			c-0.708-8.291-10.582-6.355-12.379-5.535c-2.021,0.922-2.962,2.139-3.424,4.455C41.829,70.666,42.417,78.02,42.417,78.02z"/>
		<path fill="#E5D5BD" d="M127.708,84.848c15.5-4.5,22.522-24.93,23.25-23c2,5.309,31.647,34.58,48.813,24.58l-0.812,50.197
			l-35.626-35.85c0,0-12.906-11.746-22.895-11.846c-14.543-0.143-22.715-1.328-25.202-1.062S127.708,84.848,127.708,84.848z"/>
	</g>
	<line fill="#231F20" x1="186.145" y1="63.537" x2="174.27" y2="63.537"/>
	<g>
		<polygon fill="#F8F4EF" points="153.025,35.854 172.5,14.479 204.843,14.479 223.392,35.854 		"/>
		<polygon fill="#ABA197" points="177.876,30.037 187.626,14.453 198.626,30.037 198.626,44.703 177.789,44.703 		"/>
		<path fill="#F8F4EF" d="M151.27,42.562l-0.335,19.779c0,0,1.924,4.205,5.835,9.387c3.712,4.916,11.105,11.684,21.936,14.016
			c19.065,4.107,19.38-1.158,20.085,0.104c1.481,2.646,0.168,49.117,0.168,49.117l25.312-26.236v-66.75c0,0,0-10.672-10.382-10.668
			c-8.247,0.004-19.08,0-19.08,0s-5.312,0.93-5.334,7.344c-0.017,5.074-0.017,6.199-0.017,6.199h-3.524v-9.209
			c0,0,0.041-4.5-4.125-4.334c-2.27,0.092-2.245,0.246-22.038-0.582C149.982,31.566,151.323,42.049,151.27,42.562z"/>
	</g>
	<g>
		<path fill="#657780" d="M162.978,78.676c0.25-0.375,16.125-20.375,16.125-20.375s1.361-9.875,9.931-10s9.175,7.154,9.925,10.154
			s15.645,18.221,15.645,18.221s-10.5,11.125-24.625,11.125S162.978,78.676,162.978,78.676z"/>
		<path fill="#231F20" d="M175.628,62.68h11.229V52.371l-2.75,0.75c-1,2.125-0.625,5.625-0.625,5.625l-5-0.375L175.628,62.68z"/>
		<path fill="#231F20" d="M201.81,62.68h-11.203V52.371l2.75,0.75c1,2.125,0.625,5.625,0.625,5.625l5-0.375L201.81,62.68z"/>
		<path fill="#231F20" d="M185.078,70.076c0.25-0.375,5.625-1.018,8.75,1.357c4.869,3.701,9.327,13.244,9.327,13.244
			c-4.125,2.42-6.563,3.607-12.025,3.801c-4.542,0.16-17.433-3.156-16.927-4.17C180.828,71.059,185.078,70.076,185.078,70.076z"/>
	</g>
	<g>
		<path fill="#657780" d="M157.02,49.041c0-0.117,0.002-0.234,0.006-0.352"/>
	</g>
	<g>
		<path fill="#657780" d="M178.205,47.949v10.408H167.57h-0.066c-5.576-0.17-10.043-4.607-10.043-10.057
			c0-5.559,4.646-10.062,10.375-10.062C173.444,38.238,178.013,42.555,178.205,47.949z"/>
		<circle fill="#040303" cx="167.833" cy="48.865" r="4.344"/>
		<ellipse fill="#C8C7C8" cx="167.833" cy="47.104" rx="2.281" ry="2.25"/>
	</g>
	<g>
		<path fill="#657780" d="M198.958,47.949v10.408h10.635h0.066c5.576-0.17,10.043-4.607,10.043-10.057
			c0-5.559-4.646-10.062-10.375-10.062C203.718,38.238,199.149,42.555,198.958,47.949z"/>
		<circle fill="#040303" cx="207.642" cy="48.715" r="4.344"/>
		<ellipse fill="#C8C7C8" cx="207.642" cy="46.953" rx="2.281" ry="2.25"/>
	</g>
	<g>
		<polygon fill="#010101" points="144.187,47.299 173.5,14.453 150.187,14.453 		"/>
		<path fill="#657680" d="M150.187,14.453L134.02,24.479c0,0-2.5,3,0,7.334s9.917,15.486,9.917,15.486L150.187,14.453z"/>
	</g>
	<g>
		<path fill="#010101" d="M202.843,14.318c1.26,0,21.344,0,21.344,0l6.666,32.82L202.843,14.318z"/>
		<path fill="#657680" d="M224.187,14.318l16,10.5c0,0,1.334,2.334,0,6.834s-9.334,15.486-9.334,15.486L224.187,14.318z"/>
	</g>
	<path fill="#E5D5BD" d="M224.27,107.479v32.5c0,0-1.583,11.334-6.083,16.168c-4.5,4.832,5.333,37.666,5.333,37.666l8.5,3.334v6.5
		h-20.167l-9.5-33.334c0,0-8.896,2.939-10.539,2.508s-4.689-25.006-4.689-25.006L224.27,107.479z"/>
</g>
</svg>
