<?xml version="1.0" encoding="utf-8"?>
<!-- Generator: Adobe Illustrator 16.0.0, SVG Export Plug-In . SVG Version: 6.00 Build 0)  -->
<!DOCTYPE svg PUBLIC "-//W3C//DTD SVG 1.1//EN" "http://www.w3.org/Graphics/SVG/1.1/DTD/svg11.dtd">
<svg version="1.1" id="Layer_1" xmlns="http://www.w3.org/2000/svg" xmlns:xlink="http://www.w3.org/1999/xlink" x="0px" y="0px"
	 width="118.176px" height="100.883px" viewBox="0 0 118.176 100.883" enable-background="new 0 0 118.176 100.883"
	 xml:space="preserve">
<line fill="none" x1="58.388" y1="62.578" x2="46.513" y2="62.578"/>
<g>
	<polygon fill="#F9F5EF" points="25.269,34.895 44.743,13.52 77.086,13.52 95.636,34.895 	"/>
	<polygon fill="#ABA197" points="50.119,29.078 59.869,13.494 70.869,29.078 70.869,43.744 50.032,43.744 	"/>
	<path fill="#F9F5EF" d="M23.513,41.603l-0.334,19.779c0,0,1.924,4.205,5.834,9.387c3.713,4.916,11.105,11.685,21.937,14.017
		c19.065,4.106,19.38-1.158,20.085,0.104c1.48,2.646,0,0,0,0l24.602-14.317l0.879-29.552c0,0,0-10.672-10.383-10.668
		c-8.246,0.004-19.08,0-19.08,0s-5.312,0.931-5.334,7.345c-0.017,5.073-0.017,6.198-0.017,6.198h-3.524v-9.209
		c0,0,0.041-4.5-4.125-4.334c-2.27,0.092-2.244,0.246-22.037-0.582C22.226,30.606,23.566,41.09,23.513,41.603z"/>
</g>
<g>
	<path fill="#667881" d="M35.222,77.717c0.25-0.375,16.125-20.375,16.125-20.375s1.36-9.875,9.931-10
		c8.569-0.125,9.175,7.154,9.925,10.154s15.645,18.221,15.645,18.221s-10.5,11.125-24.625,11.125S35.222,77.717,35.222,77.717z"/>
	<path fill="#231F20" d="M47.871,61.721h11.229V51.412l-2.75,0.75c-1,2.125-0.625,5.625-0.625,5.625l-5-0.375L47.871,61.721z"/>
	<path fill="#231F20" d="M74.054,61.721H62.851V51.412l2.75,0.75c1,2.125,0.625,5.625,0.625,5.625l5-0.375L74.054,61.721z"/>
	<path fill="#231F20" d="M57.321,69.117c0.25-0.375,5.625-1.019,8.75,1.356c4.869,3.701,9.326,13.244,9.326,13.244
		c-4.125,2.42-6.562,3.607-12.024,3.801c-4.542,0.16-17.433-3.155-16.927-4.17C53.071,70.1,57.321,69.117,57.321,69.117z"/>
</g>
<g>
	<path fill="#667881" d="M29.263,48.082c0-0.117,0.002-0.234,0.006-0.353"/>
</g>
<g>
	<path fill="#667881" d="M50.448,46.99v10.407H39.813h-0.066c-5.576-0.17-10.043-4.606-10.043-10.057
		c0-5.559,4.646-10.062,10.375-10.062C45.687,37.278,50.257,41.596,50.448,46.99z"/>
	<circle fill="#060505" cx="40.076" cy="47.906" r="4.344"/>
	<ellipse fill="#C8C7C8" cx="40.076" cy="46.145" rx="2.281" ry="2.25"/>
</g>
<g>
	<path fill="#667881" d="M71.201,46.99v10.407h10.635h0.066c5.575-0.17,10.043-4.606,10.043-10.057
		c0-5.559-4.646-10.062-10.375-10.062C75.961,37.278,71.392,41.596,71.201,46.99z"/>
	<circle fill="#060505" cx="79.886" cy="47.756" r="4.344"/>
	<ellipse fill="#C8C7C8" cx="79.886" cy="45.994" rx="2.28" ry="2.25"/>
</g>
<g>
	<polygon fill="#020202" points="16.431,46.34 45.743,13.494 22.431,13.494 	"/>
	<path fill="#667780" d="M22.431,13.494L6.263,23.52c0,0-2.5,3,0,7.334s9.917,15.486,9.917,15.486L22.431,13.494z"/>
</g>
<g>
	<path fill="#020202" d="M75.086,13.358c1.261,0,21.345,0,21.345,0l6.666,32.82L75.086,13.358z"/>
	<path fill="#667780" d="M96.431,13.358l16,10.5c0,0,1.334,2.334,0,6.834s-9.334,15.486-9.334,15.486L96.431,13.358z"/>
</g>
</svg>
